<?xml version="1.0" standalone="no"?>
<!DOCTYPE svg PUBLIC "-//W3C//DTD SVG 20010904//EN"
 "http://www.w3.org/TR/2001/REC-SVG-20010904/DTD/svg10.dtd">
<svg version="1.0" xmlns="http://www.w3.org/2000/svg"
 width="512.000000pt" height="512.000000pt" viewBox="0 0 512.000000 512.000000"
 preserveAspectRatio="xMidYMid meet">

<g transform="translate(0.000000,512.000000) scale(0.100000,-0.100000)"
fill="#000000" stroke="none">
<path d="M824 4986 c-28 -28 -34 -42 -34 -76 0 -53 29 -95 75 -110 96 -32 181
59 142 152 -19 44 -56 68 -108 68 -33 0 -47 -6 -75 -34z"/>
<path d="M1256 4780 c-61 -19 -93 -79 -75 -145 22 -79 128 -104 188 -44 26 26
31 38 31 79 0 41 -5 53 -31 79 -17 17 -37 31 -44 31 -7 0 -19 2 -27 4 -7 2
-26 0 -42 -4z"/>
<path d="M2031 4652 c-19 -9 -44 -30 -55 -45 -20 -26 -21 -42 -21 -220 0 -170
2 -196 19 -223 32 -53 62 -64 175 -64 l101 0 0 285 0 285 -92 0 c-69 0 -102
-5 -127 -18z"/>
<path d="M2390 4382 l0 -290 72 -10 c255 -38 446 -279 514 -649 l17 -93 337 0
337 0 6 103 c15 245 106 450 245 552 55 40 133 79 189 94 26 7 44 20 53 36 12
23 12 30 -5 61 -30 55 -178 208 -268 275 -96 73 -252 150 -363 181 -76 22 -98
22 -606 26 l-528 3 0 -289z"/>
<path d="M855 4486 c-42 -18 -65 -57 -65 -107 0 -56 50 -109 104 -109 52 0 95
25 112 66 26 62 -2 132 -63 155 -32 12 -52 11 -88 -5z"/>
<path d="M1595 4486 c-42 -18 -65 -57 -65 -107 0 -33 6 -47 34 -75 28 -28 42
-34 75 -34 52 0 89 24 108 68 25 60 -4 130 -64 153 -32 12 -52 11 -88 -5z"/>
<path d="M1228 4193 c-61 -38 -71 -125 -21 -175 42 -41 96 -48 143 -16 65 44
70 126 10 181 -36 32 -90 36 -132 10z"/>
<path d="M880 3933 c-62 -20 -90 -57 -90 -117 0 -25 8 -45 28 -66 75 -83 198
-36 196 76 -1 50 -22 79 -71 100 -34 15 -39 15 -63 7z"/>
<path d="M2440 3917 c0 -39 -69 -316 -104 -422 -44 -130 -102 -246 -158 -315
-72 -88 -81 -115 -52 -144 21 -22 77 -20 123 3 56 29 103 83 157 179 67 121
86 149 151 215 60 62 140 113 192 123 17 4 34 10 36 15 9 14 -44 132 -91 201
-61 90 -113 129 -206 154 -46 12 -48 11 -48 -9z"/>
<path d="M2976 2978 c-9 -160 -22 -245 -53 -343 -58 -187 -149 -316 -415 -590
-236 -244 -299 -327 -366 -481 -73 -167 -96 -310 -97 -589 0 -174 4 -241 19
-320 19 -100 62 -239 96 -305 32 -63 109 -159 151 -190 l42 -30 777 0 777 0
12 27 c29 62 102 265 136 378 46 153 90 371 111 555 20 179 15 614 -10 780
-66 439 -192 824 -374 1147 l-47 83 -376 0 -376 0 -7 -122z m343 -150 c43
-314 41 -715 -4 -975 l-6 -33 -381 0 -381 0 159 163 c88 89 187 200 221 247
129 181 207 387 229 608 l7 72 72 0 73 0 11 -82z m349 0 c88 -178 170 -397
222 -593 27 -101 80 -367 80 -401 0 -12 -38 -14 -235 -14 l-235 0 5 23 c16 72
35 344 35 514 0 172 -15 391 -36 516 l-6 37 64 0 65 0 41 -82z"/>
</g>
</svg>
